<?xml version="1.0" standalone="no"?>
<!DOCTYPE svg PUBLIC "-//W3C//DTD SVG 20010904//EN"
 "http://www.w3.org/TR/2001/REC-SVG-20010904/DTD/svg10.dtd">
<svg version="1.0" xmlns="http://www.w3.org/2000/svg"
 width="2068.000000pt" height="2067.000000pt" viewBox="0 0 2068.000000 2067.000000"
 preserveAspectRatio="xMidYMid meet">

<g transform="translate(0.000000,2067.000000) scale(0.100000,-0.100000)"
fill="#000000" stroke="none">
<path d="M9835 20653 c-2817 -145 -5400 -1394 -7263 -3513 -1257 -1430 -2104
-3210 -2416 -5077 -103 -615 -140 -1074 -140 -1728 0 -437 7 -610 40 -965 285
-3084 1954 -5887 4536 -7618 899 -602 1880 -1059 2903 -1351 1323 -377 2706
-488 4080 -326 2802 331 5327 1789 7038 4064 1185 1576 1892 3464 2032 5431
35 484 31 1161 -11 1650 -166 1976 -914 3885 -2138 5455 -949 1217 -2162 2212
-3536 2900 -1270 636 -2619 992 -4064 1075 -158 9 -904 11 -1061 3z m4587
-4501 l1397 -1497 -2 -5000 -2 -5000 -23 -97 c-67 -289 -184 -514 -370 -710
-210 -220 -433 -348 -742 -426 l-105 -27 -4180 -3 c-4571 -3 -4272 -6 -4479
54 -540 156 -935 597 -1033 1154 -17 101 -18 314 -18 5920 0 5580 1 5819 18
5920 109 627 599 1108 1224 1199 32 5 1602 9 3488 9 l3430 1 1397 -1497z"/>
<path d="M6160 16834 c-89 -23 -210 -88 -277 -149 -70 -63 -141 -163 -173
-245 -52 -130 -49 216 -50 -5913 0 -4082 3 -5729 11 -5780 39 -258 233 -473
485 -537 76 -20 120 -20 4188 -20 3634 0 4119 2 4171 15 183 46 353 182 434
345 77 158 71 -289 71 4777 l0 4552 -757 4 c-724 3 -762 4 -848 24 -266 61
-489 180 -673 357 -201 194 -325 411 -401 698 -56 213 -61 268 -72 868 -5 305
-12 660 -15 788 l-6 232 -3017 -1 c-2591 0 -3024 -2 -3071 -15z m7590 -4419
l0 -615 -3410 0 -3410 0 0 615 0 615 3410 0 3410 0 0 -615z m0 -2610 l0 -615
-3410 0 -3410 0 0 615 0 615 3410 0 3410 0 0 -615z m0 -2610 l0 -615 -3410 0
-3410 0 0 615 0 615 3410 0 3410 0 0 -615z"/>
</g>
</svg>
